<?xml version="1.0" encoding="UTF-8" standalone="no"?>
<svg width="65px" height="23px" viewBox="0 0 65 23" version="1.1" xmlns="http://www.w3.org/2000/svg" xmlns:xlink="http://www.w3.org/1999/xlink" xmlns:sketch="http://www.bohemiancoding.com/sketch/ns">
    <!-- Generator: Sketch 3.0.2 (7799) - http://www.bohemiancoding.com/sketch -->
    <title>green_neo</title>
    <description>Created with Sketch.</description>
    <defs></defs>
    <g id="Page-1" stroke="none" stroke-width="1" fill="none" fill-rule="evenodd" sketch:type="MSPage">
        <g id="Artboard-1" sketch:type="MSArtboardGroup" transform="translate(-309.000000, -158.000000)">
            <g id="green_neo" sketch:type="MSLayerGroup" transform="translate(309.000000, 158.517872)">
                <path d="M53.7329434,0.0371145038 L53.7329434,0.0330839695 C53.7025321,0.0330839695 53.6731234,0.0347633588 53.6428792,0.0350992366 C53.6139717,0.0347633588 53.5853985,0.0330839695 53.556491,0.0330839695 L53.556491,0.0327480916 L53.5541517,0.0327480916 L53.5513111,0.0327480916 L53.5513111,0.0330839695 L53.5513111,0.0369465649 C47.1143059,0.120748092 42.1261825,4.64032061 42.1261825,10.9709466 C42.1261825,13.5113588 42.9188817,15.7513282 44.2696787,17.5318168 L31.5042802,17.5323206 L31.5042802,17.5309771 C31.0133548,17.4671603 30.539473,17.3519542 30.0906555,17.1865344 C30.0806298,17.1828397 30.0707712,17.179313 30.0607455,17.1754504 C30.0139589,17.1579847 29.9680077,17.1391756 29.9218895,17.1207023 C29.8756041,17.1018931 29.8294859,17.083084 29.7838689,17.0630992 C29.7654884,17.0552061 29.747108,17.0468092 29.7287275,17.0385802 C27.9438175,16.2365038 26.6284447,14.5789466 26.3562468,12.116458 L40.3656684,12.116458 C40.3656684,12.116458 40.3661697,12.111084 40.366838,12.1035267 L40.4709383,12.1035267 C40.4709383,12.1035267 40.4792931,11.4823206 40.4854756,10.2360458 C40.4918252,8.98993893 40.1342416,0.530015267 31.4733676,0.530015267 C25.3748972,0.530015267 21.1497301,4.93639695 21.1497301,11.225374 C21.1497301,13.5634198 21.8284704,15.7508244 23.0770051,17.531313 L20.5923008,17.531313 C20.021671,17.531313 19.6955013,17.2038321 19.6955013,16.6299847 L19.6955013,8.47755725 C19.6955013,2.94665649 17.045874,0.530015267 12.4393959,0.530015267 C8.47506427,0.530015267 6.25587404,2.83027481 5.26550129,4.57045802 L5.26550129,3.80029008 C5.26550129,1.85438168 4.46561697,1.03265649 2.55404884,1.01519084 L2.5522108,1.01367939 L0.119305913,1.01367939 L0.119305913,10.6003053 L0.119640103,10.6003053 L0.119640103,19.1282443 C0.119640103,21.0741527 0.919524422,21.8957099 2.83092545,21.9133435 L2.8327635,21.914687 L5.26566838,21.914687 L5.26566838,12.3283969 C5.26566838,11.3454504 5.38798201,10.4029771 5.67304627,9.54346565 C6.40692802,7.04369466 8.48592545,5.28201527 11.2575321,5.28201527 C13.866054,5.28201527 14.5183933,7.00322137 14.5183933,9.54346565 L14.5183933,19.1285802 C14.5183933,21.095313 15.3339846,21.9150229 17.2905013,21.9150229 L31.9375578,21.9150229 C32.0408226,21.9177099 32.1427506,21.9220763 32.2468509,21.9220763 C32.3113496,21.9220763 32.371671,21.9158626 32.4355013,21.9150229 L54.2106684,21.9150229 C60.2561697,21.6152519 64.9654113,17.1786412 64.9654113,10.9709466 C64.9654113,4.64082443 60.0063625,0.122931298 53.7329434,0.0371145038 L53.7329434,0.0371145038 Z M31.4907455,4.4759084 C32.6543959,4.4759084 33.6920566,5.00709924 34.3918509,5.9059084 C34.9293959,6.60453435 35.26509,7.52131298 35.2998458,8.58235115 L26.5191645,8.58235115 C27.0797686,6.03119084 28.9082905,4.4759084 31.4907455,4.4759084 L31.4907455,4.4759084 Z M53.6076221,17.5316489 L53.2722622,17.5316489 L53.2717609,17.5316489 C50.0389717,17.3835267 47.3714653,14.750916 47.3714653,10.9711145 C47.3714653,7.15436641 50.1505913,4.50580153 53.640874,4.45978626 C56.9844473,4.50630534 59.7470308,7.15403053 59.7470308,10.9711145 C59.7470308,14.8414351 56.9652314,17.5019237 53.6076221,17.5316489 L53.6076221,17.5316489 Z" id="neo_5_" fill="#65CFA0" sketch:type="MSShapeGroup"></path>
                <g id="shadows_5_" transform="translate(21.053985, 17.465649)" fill-opacity="0.25" fill="#000000" sketch:type="MSShapeGroup">
                    <path d="M23.1956427,0.066 C26.5560925,4.44332824 31.8665424,4.44332824 31.8665424,4.44332824 C28.0253599,4.44332824 23.3144473,2.79534351 21.2454756,0.0701984733 L23.1956427,0.066 L23.1956427,0.066 Z" id="Shape"></path>
                    <path d="M2.04557841,0.066 C5.01803342,4.44332824 10.4235604,4.44332824 10.4235604,4.44332824 C6.58237789,4.44332824 2.12962725,2.79534351 0.0604884319,0.0701984733 L2.04557841,0.066 L2.04557841,0.066 Z" id="Shape"></path>
                </g>
            </g>
        </g>
    </g>
</svg>